<svg xmlns="http://www.w3.org/2000/svg" xmlns:xlink="http://www.w3.org/1999/xlink" width="500" zoomAndPan="magnify" viewBox="0 0 375 374.999991" height="500" preserveAspectRatio="xMidYMid meet" version="1.0"><defs><g/></defs><rect x="-37.5" width="450" fill="#ffffff" y="-37.499999" height="449.999989" fill-opacity="1"/><rect x="-37.5" width="450" fill="#000000" y="-37.499999" height="449.999989" fill-opacity="1"/><g fill="#ffffff" fill-opacity="1"><g transform="translate(84.392577, 272.999982)"><g><path d="M 3.214844 0 L 21.007812 -184.132812 L 83.386719 -184.132812 L 100.960938 0 L 66.023438 0 L 63.449219 -29.796875 L 41.15625 -29.796875 L 39.011719 0 Z M 43.941406 -59.164062 L 60.664062 -59.164062 L 52.519531 -152.835938 L 50.800781 -152.835938 Z M 43.941406 -59.164062 "/></g></g></g><g fill="#ffffff" fill-opacity="1"><g transform="translate(188.355781, 272.999982)"><g><path d="M 8.144531 -184.132812 L 64.734375 -184.132812 C 73.738281 -184.132812 80.707031 -182.097656 85.636719 -178.023438 C 90.566406 -173.949219 93.886719 -168.234375 95.601562 -160.875 C 97.316406 -153.515625 98.175781 -144.121094 98.175781 -132.6875 C 98.175781 -122.253906 96.816406 -114.109375 94.101562 -108.25 C 91.386719 -102.390625 86.671875 -98.320312 79.957031 -96.03125 C 85.527344 -94.890625 89.566406 -92.101562 92.066406 -87.671875 C 94.566406 -83.242188 95.816406 -77.238281 95.816406 -69.667969 L 95.390625 0 L 59.378906 0 L 59.378906 -72.023438 C 59.378906 -77.167969 58.375 -80.457031 56.375 -81.882812 C 54.375 -83.3125 50.730469 -84.027344 45.445312 -84.027344 L 45.445312 0 L 8.144531 0 Z M 54.445312 -115.96875 C 59.589844 -115.96875 62.164062 -121.539062 62.164062 -132.6875 C 62.164062 -137.546875 61.949219 -141.191406 61.519531 -143.621094 C 61.09375 -146.050781 60.304688 -147.726562 59.164062 -148.65625 C 58.019531 -149.585938 56.375 -150.050781 54.234375 -150.050781 L 45.65625 -150.050781 L 45.65625 -115.96875 Z M 54.445312 -115.96875 "/></g></g></g></svg>